<svg width="42" height="13" viewBox="0 0 42 13" fill="none" xmlns="http://www.w3.org/2000/svg">
<path d="M40.257 13C40.4857 13.0002 40.7121 12.9538 40.9235 12.8635C41.1348 12.7731 41.3269 12.6405 41.4888 12.4733C41.6506 12.3061 41.7791 12.1075 41.8668 11.8889C41.9545 11.6703 41.9998 11.436 42 11.1993C42.0002 10.9626 41.9554 10.7281 41.8681 10.5093C41.7808 10.2906 41.6528 10.0917 41.4912 9.92416C41.3297 9.75661 41.1379 9.62364 40.9267 9.53283C40.7155 9.44202 40.4892 9.39516 40.2605 9.39493C39.7987 9.39445 39.3556 9.58389 39.0287 9.9216C38.7019 10.2593 38.518 10.7176 38.5175 11.1957C38.517 11.6737 38.7 12.1324 39.0263 12.4708C39.3525 12.8091 39.7952 12.9995 40.257 13ZM38.514 6.28804H37.0265C36.071 6.28804 35.5565 7.0308 35.5565 8.2663V12.7337H32.739V6.28804H31.542C30.5848 6.28804 30.072 7.0308 30.072 8.2663V12.7337H27.2545V3.90399H30.072V5.24457C30.534 4.20471 31.1675 3.90399 32.1073 3.90399H35.5583V5.24457C36.0203 4.20471 36.652 3.90399 37.5918 3.90399H38.514V6.28804ZM26.6385 9.00725H20.7603C20.9142 9.99638 21.5128 10.5616 22.5208 10.5616C23.2733 10.5616 23.8018 10.2446 23.9733 9.67935L26.467 10.404C25.8527 11.9402 24.332 12.875 22.5208 12.875C19.4618 12.875 18.06 10.4203 18.06 8.31884C18.06 6.25362 19.2903 3.7808 22.3475 3.7808C25.5955 3.7808 26.6718 6.28804 26.6718 8.14311C26.6718 8.54891 26.6542 8.8134 26.6367 9.00725H26.6385ZM23.905 7.29529C23.835 6.53442 23.3065 5.8279 22.3493 5.8279C21.4602 5.8279 20.9317 6.23551 20.7603 7.29529H23.905ZM13.139 12.7319H15.617L18.7092 3.90217H15.8743L14.3693 9.04167L12.8328 3.90217H10.01L13.1372 12.7319H13.139ZM1.589 12.7319H4.3925V6.28623H7.0595V12.7319H9.84375V3.90217H4.3925V3.35507C4.3925 2.75362 4.80375 2.38406 5.453 2.38406H7.0595V0H4.9875C2.954 0 1.58725 1.28986 1.58725 3.17935V3.90399H0V6.28804H1.589V12.7337V12.7319Z" fill="black"/>
</svg>
