<svg width="73" height="33" viewBox="0 0 73 33" fill="none" xmlns="http://www.w3.org/2000/svg">
<path fill-rule="evenodd" clip-rule="evenodd" d="M33.9063 17.2981L36.9993 14.2208L39.6023 11.6309L48.1555 32.9777H40.0011L38.9797 30.3459H31.0624L32.7408 25.5725H37.1189L33.9063 17.2981ZM22.8978 28.2508L32.8828 18.3163L33.3427 19.5468L28.9098 32.9777H21.1205L22.8978 28.2508ZM48.3992 8.89285V32.9777H56.4623V8.89285H48.3992ZM57.7393 8.89285V13.7025H63.7956V21.0896H57.7393V25.754H60.5485L64.0146 32.9777H72.625L68.0826 24.6287L71.8041 20.9262V13.7025L66.9515 8.89285H57.7393ZM68.0826 24.6287L66.9515 25.754H60.5485L60.2567 25.1187L67.8272 24.1205L68.0826 24.6287Z" fill="#1B1B1B"/>
<path fill-rule="evenodd" clip-rule="evenodd" d="M25.8168 22.6564L24.3792 24.0848H19.5878L16.1478 20.6797V24.0848H0V19.2752H14.7289V17.6598H22.8028V19.2752H25.8168V22.6564ZM38.1652 10.3872V4.80976L33.3244 0H27.059V4.80976H30.0912V18.4094L33.857 14.6677L38.1652 10.3872ZM29.22 19.2752L27.059 21.4223V19.2752H29.22ZM2.41115 0L0 2.41392V4.80976H4.03694V18.1681H12.1108V0H2.41115ZM28.8491 15.0825V10.2547H22.8028V4.80976H25.8168V0H19.5878L14.7289 4.80976V10.2547L19.5878 15.0825H28.8491Z" fill="#1B1B1B"/>
</svg>
